<?xml version="1.0" encoding="UTF-8" standalone="no"?>
<svg width="26px" height="20px" viewBox="0 0 26 20" version="1.1" xmlns="http://www.w3.org/2000/svg" xmlns:xlink="http://www.w3.org/1999/xlink" xmlns:sketch="http://www.bohemiancoding.com/sketch/ns">
    <title>folder</title>
    <description>Created with Sketch (http://www.bohemiancoding.com/sketch)</description>
    <defs></defs>
    <g id="Page-1" stroke="none" stroke-width="1" fill="none" fill-rule="evenodd" sketch:type="MSPage">
        <g id="folder" sketch:type="MSLayerGroup">
            <g id="layer1" transform="translate(0.000000, -0.362200)" sketch:type="MSShapeGroup">
                <path d="M2,2.3622 C0.895431,2.3622 0,3.2576 0,4.3622 L0,18.3622 C0,19.4668 0.89543,20.3622 2,20.3622 L22,20.3622 C23.104569,20.3622 24,19.4668 24,18.3622 L24,4.3622 C24,3.2576 23.10457,2.3622 22,2.3622 L2,2.3622 L2,2.3622 Z" id="path2987-6-10"></path>
                <path d="M5.81818182,0.3622 C4.81402818,0.3622 4,1.20785556 4,2.25108889 L4,15.4733111 C4,16.5165444 4.81402727,17.3622 5.81818182,17.3622 L15.8181818,17.3622 L20.3636364,17.3622 L22.1818182,17.3622 C23.1859718,17.3622 24,16.5165444 24,15.4733111 L24,6.97331111 L24,4.13997778 C24,3.09674444 23.1859718,2.25108889 22.1818182,2.25108889 L20.3636364,2.25108889 L15.8181818,2.25108889 L14.9090909,2.25108889 L12.1818182,0.3622 L5.81818182,0.3622 L5.81818182,0.3622 Z" id="path2987-6-1-6-9" fill="#82B8E9"></path>
                <path d="M24,11.3622 L24,3.3622 C24,2.2576 23.0231673,1.3622 21.8181818,1.3622 L9.81818182,1.3622 L4.36363636,1.3622 L2.18181818,1.3622 C0.976833818,1.3622 0,2.2576 0,3.3622 L0,11.3622 L24,11.3622 L24,11.3622 Z" id="path2987-6-1-6-9-1-9"></path>
                <path d="M3,2.3622 C1.895431,2.3622 1,3.2576 1,4.3622 L1,10.3622 L1,11.3622 L1,17.3622 C1,18.4668 1.89543,19.3622 3,19.3622 L23,19.3622 C24.104569,19.3622 25,18.4668 25,17.3622 L25,11.3622 L25,10.3622 L25,4.3622 C25,3.2576 24.10457,2.3622 23,2.3622 L3,2.3622 L3,2.3622 Z" id="path2987-6-8" stroke="#82B8E9" stroke-width="0.5" fill="#F3F9FE"></path>
            </g>
        </g>
    </g>
</svg>